ply
format ascii 1.0
comment Generated by PyMesh
element vertex 199
property float x
property float y
property float z
property float charge
property float hbond
property float hphob
property float nx
property float ny
property float nz
property float si
element face 346
property list uchar int vertex_indices
end_header
-10.415 6.95275 64.3453 -2.16407 -0.0888736 -3.5 -0.923633 0.323771 -0.205121 0.931742
-6.6575 17.7568 60.8273 -1.33331 -0.0282742 -3.5 -0.884894 -0.290329 0.364241 0.899322
-8.4695 20.4433 58.41 -0.00652805 0 -1.3 -0.955293 -0.148286 -0.255786 -0.999889
-15.2743 7.72125 57.5687 -1.24086 -0.61186 -0.4 -0.724413 0.561455 -0.399993 0.999912
-4.625 28.9982 67.7288 -0.360583 0 -0.7 -0.743594 0.310221 0.59231 -0.999917
-8.856 11.8562 56.0057 -0.0709853 0 3.8 0.107735 0.400098 0.910118 0.99987
-6.76775 26.269 73.0192 -1.35348 -0.400939 2.5 -0.233298 0.216453 -0.948009 -0.99993
-4.3535 15.9235 74.0175 -0.10814 0 -0.8 0.167714 0.725867 0.667075 -0.999925
-13.1435 6.16525 68.4287 0.252828 0 3.8 -0.983114 0.181715 0.0216044 -0.999907
-3.5065 28.5802 69.0275 -1.73075 -0.67497 -0.4 -0.556177 0.150855 0.817258 -0.999916
-12.9268 10.296 55.781 1.29658 -0.686359 -0.8 -0.805174 0.592306 -0.0294462 0.999921
-7.949 23.6863 74.315 -1.34833 -0.00673767 2.5 -0.269311 -0.756573 -0.595877 -0.999895
-8.77675 19.4382 60.1401 -0.0908766 -0.241443 -1.68887 -0.944851 -0.327159 0.0149781 -0.918154
-12.4091 13.3356 56.6625 -0.0437815 -0.599893 -1.1862 -0.0852623 -0.137972 0.986759 -0.90168
-6.4865 23.256 66.352 2.00684 0 -0.7 -0.411005 0.895826 -0.169026 -0.539646
-4.12075 22.913 68.472 -1.39125 -0.327394 -0.7 -0.310857 0.892814 0.325961 0.999877
-7.746 22.675 68.1035 1.31147 0 -0.7 -0.329026 0.902094 0.279226 -0.286345
-5.65112 12.9495 64.9967 0.137093 -0.28802 -3.5 -0.185774 0.883338 -0.43035 0.999892
-9.88387 12.3439 61.1232 -0.582409 0 3.8 -0.249049 0.685065 -0.684588 0.0113594
-8.4715 9.23475 70.5045 -0.107273 0 4.2 -0.821646 0.363744 -0.438848 0.310675
-6.99525 12.4408 63.2445 -1.61923 0 -3.5 0.0136195 0.999815 -0.0135723 0.999892
-12.1053 14.8097 56.2865 -1.01349 -0.877666 -1.3 -0.0141837 0.249873 0.968175 -0.999923
-2.51975 26.1318 72.6135 0.462894 -0.189056 -0.7 -0.0392867 0.0907302 -0.9951 -0.999899
-12.6027 17.3717 67.7795 -1.85343 -0.232191 -0.0712914 -0.946846 -0.288106 0.143099 -0.47367
-0.391 24.3805 71.224 -0.387783 0 -0.7 -0.579371 0.79828 0.164556 0.999882
-9.72975 8.539 70.9735 0.0539309 0 3.87854 -0.384399 0.532056 -0.754423 0.999892
-7.68062 11.7779 68.2913 -0.4262 0 4.2 -0.950177 -0.284616 -0.127113 0.907369
-5.1735 25.7472 60.8133 -0.433972 0 -3.5 -0.808815 0.208287 -0.549941 -0.999903
-1.89825 23.3978 70.8269 -0.938078 -0.0394893 -0.7 -0.419551 0.902734 0.0951268 0.595719
-11.5697 9.28125 62.5566 -3.22447 -0.0935434 -3.5 -0.760233 -0.616882 0.203721 0.445365
-10.0872 10.5267 66.6172 -0.733988 0 4.2 -0.14374 0.0237769 0.98933 0.176867
-4.59475 22.9766 72.5943 0.282781 -0.915693 -0.7 -0.114205 0.716112 0.688579 0.55921
-14.5065 8.877 56.534 -0.36159 -0.268965 -0.682302 -0.754992 0.641711 -0.134882 -0.999912
-6.606 13.4445 57.4603 -0.0645978 0 3.8 -0.928667 -0.0358571 -0.369176 0.999894
-8.998 10.3232 56.944 -0.169181 0 3.8 0.0506257 0.863697 0.501463 0.99986
-15.482 5.301 60.382 -1.39505 -0.0205603 -0.4 -0.324518 0.091375 0.941455 0.999875
-5.9345 26.2313 66.1984 -0.391703 0 -0.7 -0.944436 -0.217753 0.246219 -0.57828
-8.0145 7.62075 68.4699 -0.164327 0 4.2 -0.628011 0.669868 0.396079 0.999902
-7.53538 15.4315 59.7533 0.337902 -0.0368404 2.46557 -0.915965 -0.0653917 0.395893 -0.45278
-6.87675 16.22 60.8503 -0.664449 -0.476124 -3.5 -0.893518 0.0773955 0.442306 0.249034
-10.4266 18.8285 70.7999 -0.293384 0 -2.05635 -0.407271 -0.0577153 0.911482 -0.696972
-17.1077 5.975 60.8135 -0.396159 -0.679646 0.0896201 0.155857 0.462877 0.872613 -0.999909
-7.0615 15.8009 71.9519 -1.45357 0 1.9 -0.717062 0.446304 0.535382 0.555527
-12.6689 16.3866 66.0198 -1.5567 0 2.5 -0.833808 0.187146 0.519365 0.091381
-2.4055 19.2537 74.5165 1.41199 -0.576119 -0.747602 -0.557812 -0.405352 0.724249 -0.999891
-8.03075 18.7075 58.1835 -0.330945 0 -1.3 -0.977437 -0.208953 -0.0309044 0.999898
-7.60775 15.2215 57.2785 -0.000301974 0 3.8 -0.853754 -0.405789 -0.326251 -0.99989
-1.20788 24.7035 72.5898 -1.11423 -0.144418 -0.7 -0.395377 0.289476 -0.871712 0.999859
-14.2475 4.81425 61.0905 -0.794073 -0.0945938 -0.4 -0.610914 -0.105905 0.784582 0.9999
-10.865 11.2032 61.1273 -2.5598 -0.496214 2.8 -0.339183 0.42768 -0.837881 0.677822
-7.1005 28.3407 63.7614 -0.0758782 -0.465394 -0.7 -0.924494 -0.202152 0.323179 -0.999929
-2.855 15.571 73.602 -0.539773 0 -0.8 0.0313268 0.619635 0.784265 0.999879
-13.7144 8.5 60.6548 -2.01317 -0.223699 -3.24453 -0.600868 0.420148 0.680024 -0.271256
-10.4214 17.7409 63.5696 1.11789 0 -0.458231 0.0721355 0.395859 -0.915474 -0.117281
-9.61913 9.85175 71.9659 -0.32554 -0.723207 1.8 -0.476039 0.611507 -0.632017 -0.999916
-13.6599 6.45388 61.7694 -1.43507 -0.452217 -1.03951 -0.470444 0.188603 0.862039 -0.647446
-16.582 7.30175 58.206 -1.24362 -0.665616 -0.4 -0.455724 0.88969 -0.0276976 -0.999888
-11.7801 8.23806 68.0921 0.493903 -0.0169576 -3.5 -0.391431 0.891568 0.227791 -0.70962
-11.2323 13.3115 61.4874 -0.959508 -0.00597498 2.83423 0.0682618 0.361003 -0.930063 -0.357025
-10.6235 7.58775 70.2132 0.89711 0 3.70251 -0.118322 0.986519 0.113052 0.999823
-7.13025 12.428 72.3688 0.749059 0 -3.5 -0.894212 -0.204509 0.398197 0.999859
-10.0684 15.0923 62.9551 -1.79111 -0.401238 3.8 0.430016 0.280516 -0.858136 0.341456
-13.0997 16.9753 64.6384 0.11069 0 2.5 -0.832842 0.530203 0.158933 -0.436699
-11.0504 19.7568 63.8332 1.19574 0 -0.4 -0.309338 0.262983 -0.913866 -0.734843
-8.443 24.183 60.6205 0.416491 0 -3.5 -0.185146 0.691711 -0.698038 -0.708561
-3.89762 24.5796 72.5264 17.7504 -0.924459 -0.7 0.265086 -0.153232 -0.951971 -0.161038
-12.8429 13.1596 61.5005 -0.538095 0 2.8 -0.279467 0.221423 -0.934275 -0.756953
-4.70162 27.5109 68.4116 -0.430878 0 -0.7 -0.694311 0.0556085 0.717523 -0.8601
-7.84387 10.891 71.936 -0.798058 0 -3.5 -0.933232 0.329027 0.144291 0.999878
-5.38763 24.6516 72.0179 2.11583 -0.0958347 -0.7 -0.0692253 -0.18719 -0.979881 -0.735124
-3.38063 23.4359 70.3231 -0.111536 -0.0428377 -0.7 -0.189384 0.964567 0.183694 0.100591
-10.6675 20.6098 70.3419 -0.662859 0 -1.69613 -0.440359 0.538416 0.718465 -0.726684
-5.771 23.3818 67.9723 0.270161 -0.701822 -0.7 -0.323961 0.894657 0.307634 -0.254986
-13.5519 10.1327 59.2402 3.56252 0 2.8 -0.596162 0.772057 0.220272 -0.447741
-8.385 11.1172 70.2173 -0.434869 0 4.2 -0.998508 -0.0419879 0.034919 -0.330149
-6.42631 22.1527 72.0375 -1.22906 -0.953344 -0.7 -0.578705 0.756169 0.305467 -0.68802
-8.48006 12.1059 60.0409 -0.0415007 0 3.8 -0.470284 0.714689 -0.517738 0.220333
-12.3746 11.8807 55.6937 4.40844 -0.960068 -0.8 -0.615473 0.208447 0.760094 0.999916
-4.6175 26.5351 72.886 5.88095 0 -0.534704 -0.0507302 0.292137 -0.95503 0.999883
-8.3615 16.8705 58.0088 -0.261124 0 -1.3 -0.971381 -0.103983 0.213558 -0.999863
-11.4788 16.0599 67.5899 -2.03172 0 3.8 -0.625859 -0.646064 0.436923 0.196853
-5.17112 24.0414 60.0091 -0.220357 -0.194536 -3.5 -0.575202 0.436432 -0.691859 0.999885
-9.1405 18.7151 64.2489 0.299953 0 -0.4 -0.167054 0.0173722 -0.985795 0.56517
-17.8794 7.17037 59.7551 2.62582 0 -3.70378 -0.0125016 0.885388 0.464685 -0.999911
-8.67838 24.8505 73.445 -1.29822 -0.28043 3.22045 -0.43134 -0.260512 -0.863759 -0.999935
-12.1855 20.3739 68.4374 -0.918103 -0.0123767 2.35824 -0.849595 0.316487 0.42193 -0.776375
-1.98713 24.2536 69.3113 -0.439262 -0.263243 -0.7 -0.453981 0.563863 0.689898 0.458227
-13.6251 10.2213 63.0468 -1.87031 -0.183334 -3.29149 -0.663287 -0.742786 -0.0912076 -0.999793
-5.23944 23.1719 70.1659 0.631978 0 -0.7 -0.298246 0.954402 0.0128756 -0.303797
-7.69906 17.8393 59.5031 -1.54281 -0.113575 -3.5 -0.88463 -0.257639 0.388654 0.0489015
-13.0127 4.15487 64.3306 0.0442781 0 -0.4 -0.753208 0.656551 -0.0402332 0.999866
-10.977 21.5469 69.1646 -0.495457 0 3.8 -0.464429 0.800575 0.378662 -0.999768
-11.979 14.6484 61.9804 -1.72761 -0.290327 3.8 0.0664549 0.400099 -0.91406 -0.37783
-5.40419 15.858 64.7146 -0.0979234 0 -3.5 -0.247123 -0.725805 -0.641979 0.809952
-5.30425 22.0212 73.6384 -0.0470103 -0.121438 -0.7 -0.443997 0.315881 0.838502 -0.444967
-10.7271 21.5501 64.9111 -0.467655 -0.0286257 3.65739 -0.340336 0.731885 -0.590352 -0.989094
-7.77012 10.4534 58.3061 -0.22758 0 3.8 -0.561627 0.766085 -0.312551 0.999861
-6.17975 22.2495 59.4027 -1.53632 -0.533624 -3.5 -0.286345 0.672004 -0.682947 0.999874
-0.03025 25.6251 69.8688 -0.181502 0 -0.7 -0.453332 0.306638 0.836937 0.999889
-12.1106 13.0806 67.0942 -3.13339 -0.323469 4.12261 -0.100891 0.0658178 0.992718 -0.663678
-7.2715 11.5795 56.6522 -0.112536 0 3.8 -0.772468 0.582988 0.251829 0.999871
-10.0273 22.458 60.5266 3.49936 -0.0670632 -3.21981 -0.900068 -0.0936692 -0.425563 -0.803381
-4.52125 23.5189 72.0175 1.65994 -0.988024 -0.7 -0.360961 0.898183 0.250945 -0.609644
-6.66875 22.3913 69.208 -0.0187898 0 -0.7 -0.513598 0.796396 0.319327 0.350394
-5.589 22.9309 65.0966 -0.194468 0 -0.7 -0.5016 0.859255 0.100393 0.803119
-9.97456 12.9462 67.2094 -1.98644 0 3.97407 -0.163373 -0.185417 0.968984 -0.14879
-7.13156 24.6385 72.7365 -0.971725 -0.744905 -0.174947 -0.317968 -0.284248 -0.904488 -0.521281
-12.3211 11.2559 57.5822 0.352296 0 2.8 -0.558503 0.798429 0.224913 -0.402816
-2.30825 21.4412 74.5587 -0.833904 -0.546597 -0.7 -0.297362 -0.150391 0.942846 -0.999835
-4.98663 23.9763 66.5391 -0.241055 0 -0.7 -0.913388 0.378522 0.149811 0.261316
-12.8045 18.995 67.3634 -1.66592 -0.415021 0.0418711 -0.994558 0.0565169 0.0875233 -0.999688
-10.4198 22.2799 66.6362 -0.402141 -0.0288939 -0.7 -0.400212 0.909919 -0.108983 -0.999712
-12.874 4.462 62.3385 -0.307594 0 -0.4 -0.643826 0.359015 0.675719 0.999863
-7.20213 18.9596 72.7599 0.0712608 0 1.9 -0.721202 -0.272186 0.637011 -0.688827
-12.1325 7.83213 61.3819 -2.64529 -0.416034 -3.5 -0.596169 0.175302 0.783487 0.576223
-6.47087 27.3717 64.9564 -0.371656 -0.043044 -0.7 -0.930226 -0.279714 0.23757 -0.385647
-8.16088 21.3989 69.2842 -0.437507 0 -0.7 -0.20477 0.800371 0.56345 0.775991
-14.6626 9.1595 58.4799 0.095878 0 -2.37412 -0.739338 0.670547 0.0612103 -0.43002
-6.59312 15.7206 74.1761 -0.487656 0 1.9 -0.574912 0.697735 0.427367 -0.999882
-8.78594 7.63287 70.0269 -0.000195876 0 4.2 -0.483327 0.77834 -0.400727 0.764035
-9.38237 22.5161 67.8003 -0.191831 0 -0.7 -0.148558 0.958641 0.24277 -0.561539
-11.086 12.028 56.634 0.152268 0 3.8 0.0218976 0.716506 0.697238 -0.0893757
-7.90688 15.3326 64.3266 -0.253072 -0.0234406 -3.5 0.413386 -0.296995 -0.860759 0.100045
-4.80481 24.5768 64.1256 -0.258075 0 -0.7 -0.951296 0.0586557 0.302649 0.661331
-1.561 17.1462 73.3856 -1.96108 -0.507018 -0.8 -0.543313 -0.0757089 0.836109 0.999902
-10.6847 8.0435 63.2754 -2.11018 -0.265966 -3.5 -0.937018 -0.218107 0.272813 0.920458
-11.5033 14.6803 66.7107 -5.48327 0 3.8 -0.233199 0.0334299 0.971854 0.288916
-8.64675 14.6185 71.2494 -1.09735 0 -2.62843 -0.799787 -0.128877 0.586287 -0.241803
-12.1576 9.81162 64.8012 -1.14672 0 -3.5 -0.680969 -0.699453 0.2169 0.0968709
-4.77537 15.9738 63.2896 0.450681 0 -3.5 -0.839374 -0.424164 0.339906 0.742135
-7.99869 22.1839 65.5068 -2.12486 -0.74193 -0.7 -0.345688 0.936848 -0.053059 0.229187
-8.47494 16.7305 64.0042 2.82694 0 -3.5 0.0117434 -0.0201942 -0.999727 0.229408
-5.751 28.8757 65.9511 -0.803682 -0.286495 -0.7 -0.861884 0.118199 0.493138 -0.999861
-13.7195 14.3176 56.0701 -1.10474 -0.29745 -0.8 -0.465413 -0.0898875 0.880517 -0.999942
-7.241 12.9835 59.1024 0.115177 0 3.8 -0.97879 0.0709511 -0.192187 0.179153
-8.21587 12.6162 70.3459 -1.47686 -0.629122 -3.5 -0.881366 -0.0747216 0.466488 0.542175
-5.755 14.284 65.7099 -1.1118 0 -3.5 -0.0234107 -0.130443 -0.991179 0.99986
-11.5503 11.1716 66.8993 -1.59879 -0.182922 4.2 -0.170399 -0.401899 0.89969 -0.333896
-11.3158 16.4737 62.5808 1.06053 -0.623135 3.67548 0.121171 0.358106 -0.925785 -0.705553
-13.9439 11.0457 65.1264 -0.975437 0 1.18193 -0.733645 -0.596424 0.325643 -0.99975
-5.43575 17.011 73.1062 -0.170263 -0.358242 -0.402733 -0.244438 0.186426 0.951575 0.111677
-12.9693 7.27222 67.0459 -0.309096 0 -3.5 -0.890418 0.439702 -0.117549 -0.733228
-15.5619 7.10794 59.9364 -0.291099 -0.0972834 -2.37027 -0.370974 0.611429 0.698951 -0.0835207
-13.266 11.9805 66.868 -0.959565 -0.265473 0.0281707 -0.555557 -0.270654 0.786195 -0.833809
-5.0805 13.6007 63.001 -0.409253 0 -3.5 -0.509791 0.7313 0.453115 0.454864
-8.34741 20.4402 71.1904 -0.571398 0 -0.594975 -0.635916 0.432519 0.63917 -0.176982
-6.00112 25.4504 62.4924 -0.354104 0 -3.11751 -0.991738 0.013345 0.127581 -0.151336
-8.72825 20.5175 61.4598 -0.169413 0 -0.4 -0.876567 -0.481196 0.00900449 0.107042
-14.1365 11.71 62.2144 -1.21013 0 -0.772364 -0.877749 -0.15057 -0.454846 -0.903798
-13.5706 14.5725 62.5101 -1.04795 -0.119365 -2.26999 -0.633294 0.317325 -0.705864 -0.548592
-13.8978 14.6151 66.5418 -4.29871 0 2.01238 -0.586053 0.249382 0.770941 -0.999821
-12.3161 7.32613 69.822 3.15467 0 1.8 -0.65258 0.708456 0.268755 -0.999893
-5.22366 25.5307 67.3737 -0.184914 0 -0.7 -0.70348 -0.232486 0.671615 -0.99963
-8.34925 12.57 66.1608 -0.734962 -0.0858619 -3.5 -0.406615 -0.275094 0.871199 0.99988
-11.9564 17.1654 69.5676 -1.44127 0 -0.969972 -0.813499 -0.267725 0.516279 -0.999785
-12.518 10.2973 61.1916 -2.36541 -0.325138 0.973834 -0.953633 0.197023 -0.227524 -0.0347825
-9.6005 14.4225 66.955 -1.65688 -0.628793 3.8 -0.715547 -0.320084 0.620918 0.99988
-12.1877 18.5267 64.6718 1.41939 0 2.5 -0.890831 0.296416 -0.344321 -0.0907842
-3.76887 19.3514 73.5827 3.69912 0 -0.8 -0.124362 -0.383797 0.915005 0.246963
-12.7129 17.1999 63.1921 2.03737 0 2.5 -0.526118 0.608988 -0.593578 -0.663412
-7.201 20.9351 73.1212 -1.62973 -0.17358 2.5 -0.66889 0.27835 0.68928 -0.877668
-9.31741 20.689 64.0717 -0.339272 0 -0.4 -0.619037 0.150721 -0.770763 0.169847
-10.2296 14.0281 56.0965 -0.0878128 0 -0.294245 0.0769611 0.0773239 0.994031 0.999899
-12.3933 20.4393 65.8165 -0.17027 0 2.73984 -0.827991 0.514891 -0.222076 -0.999767
-5.91187 19.2947 73.6352 0.684855 0 -0.7 -0.266198 -0.170731 0.948678 -0.562401
-6.08038 22.946 74.8456 -0.36783 -0.0290118 0.476922 -0.405966 -0.788691 -0.46169 0.999866
-14.2911 15.3566 64.2935 -0.528129 0 -3.2 -0.905602 0.424102 -0.00484886 -0.809326
-8.2535 18.9585 70.803 0.246364 0 1.9 -0.506286 -0.148867 0.849419 0.54709
-7.76653 9.92181 68.301 -0.264207 0 4.2 -0.984447 0.154018 0.0845095 0.474424
-10.2529 10.7739 59.0674 -0.761436 -0.00620086 3.19499 -0.185891 0.975517 -0.117519 0.224517
-12.7674 4.91762 66.4996 -1.8997 -0.326701 3.8 -0.893316 0.261871 -0.365253 0.999818
-3.2555 17.6734 72.3323 2.72354 -0.817866 -0.8 -0.222901 -0.17442 0.95911 0.999852
-7.63075 14.0317 73.7473 -0.470658 0 -0.0989977 -0.91206 0.246742 0.327514 -0.999872
-14.6734 12.7009 64.5131 -1.3676 -0.485423 -3.2 -0.995809 -0.0565218 0.0718963 -0.798157
-7.78291 19.4853 62.4634 -0.32525 0 -0.4 -0.830271 -0.532006 -0.166189 0.42953
-8.42247 13.3935 62.544 -0.864606 -0.299098 0.563101 0.261038 0.851857 -0.454092 0.100223
-9.24494 13.6189 69.0747 -1.43117 -0.836574 2.87284 -0.859658 -0.447612 0.246234 -0.160075
-3.46456 24.707 67.9592 -2.88246 -0.359363 -0.7 -0.60457 0.296857 0.73917 0.314716
-7.70925 23.3131 63.8529 -0.528037 0 -0.7 -0.215632 0.755733 0.618361 -0.130532
-9.54284 8.78959 67.2851 -0.365876 0 4.2 -0.262449 0.704506 0.659388 0.310923
-7.9255 13.8317 65.1123 -1.51817 0 -3.5 0.521534 0.564654 -0.639663 0.765595
-10.4735 24.1439 62.5186 0.841628 0 3.8 -0.79819 0.582325 0.154245 -0.999878
-1.65375 27.2773 69.814 -0.219916 0 -0.7 -0.435102 -0.181323 0.881934 -0.999796
-6.90966 14.1433 61.1093 7.06033 0 -3.5 -0.877852 0.310849 0.364348 0.137759
-3.95144 14.3024 64.8253 -0.968362 0 -3.5 -0.903287 0.0486295 -0.426271 0.999898
-11.4004 5.95544 63.5286 -4.75787 -0.15956 -3.5 -0.824955 0.559227 0.0819451 0.298387
-6.23444 17.1438 62.6656 0.473214 0 -3.5 -0.813713 -0.539688 -0.215888 0.247159
-6.9075 23.9895 61.42 -0.266358 0 -3.5 -0.282758 0.868336 -0.407481 0.170244
-8.62044 25.0877 61.9651 0.293814 -0.221357 -2.79011 0.101462 0.994384 0.0300915 -0.999876
-8.81181 22.0567 59.1876 0.911508 0 -1.3 -0.688666 0.253857 -0.679187 -0.999807
-9.94828 22.2053 63.1598 -0.148465 -0.597789 -0.46082 -0.932086 -0.18231 0.313017 -0.408716
-10.2277 15.9899 70.0836 -1.07691 -0.0233326 2.8495 -0.634269 -0.464574 0.61796 -0.191594
-11.3904 8.67513 65.8576 -0.61307 0 -3.5 -0.973652 0.223723 0.0441513 -0.0308305
-6.70606 27.1942 62.0331 -0.553913 0 -3.5 -0.897295 -0.436541 0.0655163 0.999851
-3.49775 22.822 74.4467 -0.593003 -0.3306 -0.7 -0.465749 0.828 0.312241 0.431472
-13.3852 10.0646 57.2467 0.888222 0 -0.8 -0.689376 0.716137 -0.109128 0.241252
-4.65806 23.1104 72.5482 0.33965 -0.930716 -0.7 -0.861568 0.472025 0.186795 -0.105951
-4.69087 22.9746 72.7399 0.264749 -0.849181 -0.7 3.66374e-15 5.32907e-15 -1.11022e-15 -0.107395
-4.49563 23.2045 72.5846 0.412655 -0.966545 -0.7 0.310457 -0.174586 -0.934417 -0.0580865
3 156 176 105
3 156 191 176
3 105 176 153
3 126 156 105
3 156 80 191
3 176 191 127
3 176 26 153
3 153 137 105
3 80 156 126
3 105 99 126
3 191 80 154
3 167 127 191
3 135 176 127
3 26 176 74
3 168 153 26
3 153 30 137
3 137 99 105
3 80 126 43
3 126 99 150
3 154 80 23
3 191 154 40
3 42 127 167
3 167 191 40
3 74 176 135
3 135 127 60
3 168 26 74
3 179 153 168
3 179 30 153
3 192 137 30
3 143 99 137
3 43 126 150
3 23 80 43
3 150 99 143
3 110 154 23
3 40 154 85
3 172 127 42
3 140 42 167
3 167 40 145
3 135 68 74
3 172 60 127
3 68 135 60
3 168 74 19
3 179 168 37
3 30 179 192
3 128 137 192
3 137 139 143
3 43 150 166
3 43 157 23
3 150 143 173
3 85 154 110
3 110 23 157
3 85 71 40
3 172 42 118
3 118 42 140
3 113 140 167
3 40 71 145
3 145 113 167
3 19 74 68
3 168 19 119
3 168 119 37
3 37 119 179
3 57 192 179
3 139 137 128
3 125 128 192
3 143 139 173
3 173 166 150
3 166 62 43
3 43 62 157
3 163 85 110
3 157 163 110
3 85 91 71
3 118 140 7
3 164 140 113
3 145 71 116
3 145 160 113
3 68 54 19
3 119 19 25
3 179 119 59
3 141 192 57
3 179 59 57
3 87 139 128
3 125 29 128
3 0 125 192
3 139 148 173
3 166 173 149
3 166 159 62
3 159 157 62
3 91 85 163
3 157 63 163
3 116 71 91
3 51 7 140
3 158 140 164
3 164 113 160
3 116 103 145
3 75 160 145
3 19 54 25
3 59 119 25
3 170 192 141
3 141 57 151
3 151 57 59
3 139 87 148
3 87 128 29
3 114 29 125
3 125 0 185
3 0 192 185
3 149 173 148
3 149 159 166
3 159 53 157
3 91 163 111
3 53 63 157
3 163 63 95
3 120 116 91
3 171 51 140
3 140 158 171
3 164 108 158
3 94 164 160
3 103 116 16
3 103 75 145
3 94 160 75
3 192 170 185
3 141 8 170
3 141 151 8
3 148 87 155
3 29 155 87
3 29 114 155
3 114 125 185
3 149 148 66
3 138 159 149
3 159 138 53
3 95 111 163
3 91 111 120
3 53 82 63
3 95 63 161
3 120 16 116
3 171 124 51
3 171 158 44
3 164 94 108
3 44 158 108
3 103 16 72
3 103 88 75
3 75 194 94
3 185 170 90
3 66 148 155
3 114 52 155
3 112 114 185
3 66 92 149
3 138 149 92
3 131 53 138
3 95 130 111
3 130 120 111
3 53 131 82
3 82 161 63
3 130 95 161
3 130 16 120
3 171 44 124
3 108 94 194
3 16 14 72
3 88 103 72
3 88 102 75
3 75 197 194
3 112 185 90
3 66 155 49
3 114 55 52
3 73 155 52
3 112 55 114
3 92 66 58
3 138 92 61
3 61 131 138
3 82 131 174
3 174 161 82
3 190 130 161
3 14 16 130
3 72 14 109
3 88 72 15
3 70 102 88
3 75 102 196
3 75 196 197
3 194 198 197
3 31 194 197
3 165 194 197
3 49 155 169
3 58 66 49
3 55 142 52
3 155 73 169
3 73 52 117
3 112 48 55
3 175 92 58
3 61 92 175
3 61 122 131
3 174 131 186
3 190 161 174
3 178 130 190
3 14 130 104
3 109 14 104
3 177 72 109
3 177 15 72
3 15 70 88
3 70 194 102
3 196 102 198
3 198 196 197
3 165 197 196
3 196 31 197
3 198 102 194
3 194 65 198
3 31 198 194
3 18 49 169
3 58 49 18
3 35 142 55
3 142 117 52
3 107 169 73
3 73 117 195
3 55 48 35
3 58 18 175
3 175 122 61
3 186 131 122
3 174 186 1
3 174 147 190
3 130 178 104
3 190 181 178
3 123 109 104
3 152 177 109
3 177 70 15
3 70 28 194
3 69 196 198
3 198 31 196
3 165 196 69
3 194 47 65
3 69 198 65
3 76 18 169
3 35 41 142
3 117 142 56
3 107 121 169
3 73 195 107
3 32 195 117
3 76 175 18
3 122 175 180
3 93 186 122
3 186 39 1
3 1 89 174
3 12 147 174
3 190 147 101
3 104 178 123
3 101 181 190
3 188 178 181
3 123 36 109
3 152 182 177
3 36 152 109
3 177 86 70
3 86 28 70
3 47 194 28
3 69 106 165
3 65 47 22
3 69 65 78
3 96 76 169
3 83 142 41
3 83 56 142
3 117 56 3
3 121 107 77
3 34 169 121
3 10 107 195
3 10 195 32
3 32 117 3
3 183 175 76
3 20 180 175
3 180 136 122
3 186 93 129
3 122 136 93
3 186 183 39
3 1 39 89
3 89 12 174
3 12 189 147
3 189 101 147
3 123 178 187
3 101 64 181
3 188 187 178
3 181 64 188
3 36 123 115
3 67 182 152
3 86 177 182
3 132 152 36
3 24 28 86
3 47 28 24
3 69 78 106
3 106 11 165
3 65 22 78
3 134 76 96
3 96 169 34
3 10 77 107
3 77 162 121
3 34 121 5
3 175 183 144
3 134 183 76
3 20 144 180
3 175 144 20
3 17 136 180
3 184 129 93
3 129 183 186
3 184 93 136
3 39 183 38
3 89 39 38
3 45 12 89
3 2 189 12
3 101 189 64
3 146 123 187
3 187 188 64
3 115 123 193
3 36 115 132
3 67 9 182
3 67 152 132
3 182 98 86
3 98 24 86
3 106 78 6
3 106 84 11
3 96 100 134
3 100 96 34
3 77 13 162
3 5 121 162
3 34 5 100
3 144 183 129
3 38 183 134
3 144 17 180
3 184 136 17
3 184 144 129
3 38 79 89
3 45 2 12
3 79 45 89
3 64 189 187
3 193 123 146
3 146 187 27
3 193 50 115
3 132 115 50
3 9 67 4
3 4 67 132
3 6 84 106
3 33 134 100
3 133 13 77
3 21 162 13
3 79 38 134
3 184 17 144
3 187 189 97
3 146 27 193
3 81 27 187
3 46 134 33
3 21 13 133
3 134 46 79
3 81 187 97
