ply
format ascii 1.0
comment Generated by PyMesh
element vertex 240
property float x
property float y
property float z
property float charge
property float hbond
property float hphob
property float nx
property float ny
property float nz
property float si
element face 432
property list uchar int vertex_indices
end_header
1.56375 -17.7262 82.5232 -1.74092 -0.931742 4.5 -0.0980248 -0.773992 -0.625562 0.699237
6.12825 -16.379 76.6058 -0.960735 0 3.8 -0.69006 -0.716875 0.0995355 0.678677
-1.38525 -19.0875 78.473 -2.84328 -0.180172 1.9 0.75919 -0.58553 0.284227 -0.525708
3.75625 -16.1943 78.698 -1.27344 0 4.5 -0.447985 -0.520533 -0.72688 -0.654431
4.2405 -8.33488 72.5275 -0.998973 0 2.93973 -0.262145 0.032725 0.964473 0.622593
-4.2065 -23.2831 77.0088 -0.972612 -0.00347023 -1.3 -0.634708 -0.385915 0.669489 -0.9999
-4.206 -16.1945 85.212 -1.31853 -0.444393 -3.5 -0.603462 0.764402 0.226986 0.999899
3.144 -18.3305 82.0856 -1.57011 -0.0369999 4.06602 -0.643096 -0.524731 -0.557751 0.798666
-4.7965 -19.638 85.634 -1.47809 -0.0758104 -3.5 -0.152023 -0.974654 -0.16413 0.9999
6.45412 -5.08675 78.0245 -0.826618 0 -3.23001 -0.790561 -0.224377 -0.569796 0.910386
3.987 -16.7886 73.649 -1.01605 0 1.8 -0.193109 -0.283968 0.939186 0.760664
-3.86775 -15.956 70.5447 -2.63278 -0.899228 -3.5 -0.425237 -0.541557 0.725182 -0.999899
4.48737 -26.498 79.0866 0.403417 0 -3.9 -0.556559 -0.378541 -0.73956 -0.0739051
-3.878 -20.0658 86.9225 -1.0075 0 -3.69459 -0.584952 -0.650532 -0.484397 0.99991
0.372 -17.3673 81.5587 -1.74214 -0.607453 3.92782 0.320696 -0.757261 -0.568956 0.282153
0.916125 -2.76213 78.2767 -0.418982 -0.0565945 -4.5 0.686532 -0.725396 0.0497484 0.999864
-4.76575 -3.96925 73.9583 -1.62616 -0.517867 3.8 -0.382408 0.0729056 0.921113 0.999891
6.03487 -5.59137 74.2934 -0.587092 0 1.8 -0.79126 -0.174949 0.585918 0.6877
7.19825 -18.8534 77.0806 -0.39548 0 3.8 -0.87697 0.42699 -0.22046 0.999892
5.95625 -8.10938 73.5104 -1.16668 -0.175732 2.65674 -0.812072 0.0482649 0.581558 0.999816
-5.4215 -13.4965 79.1525 -0.929189 0 1.9 -0.780212 0.379678 -0.497106 -0.806524
-0.705125 -25.5629 71.5478 0.181938 0 -1.3 -0.148065 -0.955256 -0.256054 -0.73463
4.53438 -11.7764 78.535 -1.48817 0 4.32781 -0.888565 0.295626 -0.350796 0.454246
3.925 -14.579 78.047 -1.32529 0 4.5 -0.75108 -0.190738 -0.632059 -0.126892
-4.56575 -4.10025 81.8372 -0.416182 -0.387709 4.2 -0.747171 -0.559875 0.358156 0.999926
-1.43425 -23.3822 70.4965 -0.0347657 0 -1.3 -0.596957 -0.187595 -0.780033 -0.095334
-3.81538 -12.0446 72.9815 -0.757953 0 -3.5 -0.833211 -0.538131 0.127177 0.655274
-3.48175 -21.8962 87.0515 3.38081 0 -3.9 -0.645752 -0.216082 -0.732334 -0.999919
-0.277875 -5.86987 79.322 -0.443728 0 -2.9452 0.767934 -0.448908 -0.456901 0.481137
4.4425 -25.2682 76.6967 -1.25318 -0.0802506 -3.53833 -0.819661 -0.568305 0.0720112 -0.39446
0.533 -28.719 79.981 1.2247 0 -3.9 -0.416135 0.3863 -0.823167 -0.999833
5.36725 -26.2073 75.261 1.83304 0 -3.7625 -0.742463 -0.664873 0.0818078 0.999871
-1.121 -24.625 76.4745 -0.301396 0 -1.3 0.112513 -0.72019 0.684593 -0.999858
-6.56975 -17.219 80.942 -1.4897 -0.67488 -3.07335 -0.935581 0.0463709 -0.350054 -0.999867
-3.81775 -13.4607 83.4635 2.75327 0 1.9 -0.602323 -0.0230541 0.79792 0.999896
-1.7475 -27.7342 83.0062 -0.22004 0 -3.9 -0.874279 0.198342 -0.443053 -0.999917
3.281 -5.35875 79.126 -0.575213 0 -0.9 -0.281976 -0.152221 -0.947269 -0.474909
-2.58137 -21.1699 86.0433 2.15263 0 -3.9 -0.342729 -0.433066 -0.833661 -0.338233
-3.0515 -23.008 71.294 0.842464 0 -1.3 -0.613469 0.0223433 -0.789403 -0.80209
-0.13725 -19.01 75.4319 1.11588 0 -3.5 0.629828 0.103832 0.769763 -0.0739954
5.76813 -4.27938 75.0469 2.10954 0 -1.37588 -0.534792 -0.705345 0.46528 0.611591
1.774 -7.226 75.025 -1.07334 0 3.8 0.479504 -0.716726 0.50634 -0.712186
-4.4315 -21.8165 73.308 -0.151276 0 -1.3 -0.848712 0.430296 -0.307461 -0.999831
-4.79637 -19.1047 77.5051 -9.46441 0 1.9 -0.759959 -0.368977 -0.535086 -0.644327
-2.469 -18.974 81.825 -0.806363 -0.134397 -0.844091 0.227481 -0.973739 -0.00916149 0.127914
-0.773375 -7.27688 78.9645 -0.710774 0 -3.5 0.404816 -0.527474 -0.746924 -0.313049
2.29513 -22.8244 79.8438 -2.71411 -0.0929168 -3.5 -0.965257 0.0879129 -0.246069 -0.565372
-0.842375 -16.962 80.1523 -1.60068 -0.237159 3.47012 0.587382 -0.433151 -0.683639 0.0635944
5.625 -26.8305 77.2913 4.50031 0 -3.9 -0.808583 -0.558924 -0.18384 0.9999
-0.258375 -11.7101 75.549 -1.65946 0 -3.5 0.800377 0.320512 0.506625 -0.274733
3.16425 -18.9673 74.0853 -1.04715 -0.0559782 -3.5 -0.0310528 0.573203 0.818825 0.40764
-6.583 -4.983 78.6592 -0.297611 0 4.2 -0.387627 -0.877125 -0.283544 -0.999892
1.98875 -13.5147 74.1982 -1.11622 0 1.8 0.11984 0.272881 0.954555 -0.364012
2.05612 -9.94575 81.1871 -1.60811 0 -1.35042 -0.093052 0.078192 -0.992586 0.441519
-7.129 -9.74675 74.6355 -0.400352 0 3.8 -0.103895 -0.188381 0.976585 -0.999901
-4.49325 -13.8357 71.0967 -0.674629 0 -3.5 -0.760695 -0.3137 0.568274 -0.999885
-5.28725 -11.0878 83.2517 3.53465 0 -3.9 -0.85025 0.505063 -0.148275 0.999897
-4.2595 -7.614 84.0963 -0.327441 -0.710084 -2.87004 -0.980492 0.121497 0.15451 -0.999878
-3.14387 -2.70513 74.5632 -0.702575 0 3.8 -0.865356 0.0134956 0.500976 0.999893
-6.27738 -11.1921 73.7523 -0.49802 0 3.8 -0.295426 -0.86172 0.412507 -0.999894
-5.24788 -3.62188 77.6708 -0.424534 0 4.2 -0.110617 -0.542706 -0.832607 0.999878
4.31081 -20.5912 75.8684 -1.32919 0 -3.5 -0.374662 0.787562 0.489259 0.373027
-2.2505 -24.772 74.4658 -0.865424 0 -1.3 -0.194432 -0.974995 0.107617 -0.52277
0.489062 -14.2096 74.2721 -1.88275 0 1.1531 0.212279 0.0669103 0.974916 0.408982
3.337 -11.969 80.1462 -1.48618 0 4.05787 -0.450636 0.478169 -0.753844 0.999782
-3.86512 -5.36662 81.3193 -0.88104 -0.484287 2.14539 -0.900889 -0.274389 0.336317 0.884627
2.21462 -24.262 73.4686 0.772167 -0.674551 -0.7 -0.107801 -0.950131 0.292627 0.397921
3.40037 -9.08362 81.2193 -1.62289 0 0.188593 -0.446715 -0.156562 -0.880871 0.999888
0.943687 -20.8353 74.8407 -0.544349 0 -3.5 0.246333 0.306439 0.919464 0.563969
-5.18675 -14.1023 82.5782 0.924528 0 1.9 -0.60829 -0.0268869 0.793259 -0.999812
-2.80288 -17.2712 70.0494 -1.40793 0 -3.79663 -0.933356 -0.288304 0.213839 0.999845
2.90162 -21.4303 81.1253 -1.74101 -0.358343 -3.5 -0.918794 0.392676 0.0402913 -0.58006
0.01 -25.3771 73.0724 -0.13793 0 -1.3 0.14391 -0.974635 0.171398 -0.421012
-0.852 -18.5613 84.4076 -1.79889 0 1.8 0.0503736 -0.916283 -0.397352 0.665047
4.9755 -10.31 76.509 -1.16158 0 4.2 -0.9188 0.111547 -0.378634 -0.0647794
-4.68206 -10.5701 81.5448 0.471164 0 0.765365 -0.946474 0.280551 -0.159619 0.251355
-4.12475 -15.5246 83.1721 1.66075 0 -3.5 -0.704841 0.414795 0.575452 0.58454
5.22925 -15.8749 77.8861 -1.11993 0 4.1832 -0.538371 -0.714695 -0.446505 0.361994
-1.97625 -7.01487 74.8706 -0.917939 -0.000969248 3.4114 -0.497617 -0.305836 0.81169 0.0633537
5.63938 -16.9389 74.5824 -0.898436 0 3.8 -0.684363 -0.320596 0.654878 0.774204
-2.88175 -15.2531 85.6077 -1.89607 -0.579628 -3.9 -0.743062 0.591358 0.313296 0.999896
7.09394 -5.6335 76.3691 -0.936228 -0.359917 -2.16738 -0.991527 -0.120644 0.0481593 0.999841
-3.14006 -19.7859 84.9782 -2.70468 -0.846846 -3.5 -0.0115269 -0.889984 -0.455847 -0.0817844
-1.47544 -17.9854 76.4734 -1.79475 -0.0313681 -2.42135 0.889434 0.211504 0.405183 0.25343
-2.17125 -8.93038 74.6773 -1.97486 -0.689976 -3.5 -0.0756038 -0.0208455 0.99692 0.185848
-2.18313 -21.5044 76.5101 -0.89434 0 -1.3 0.239005 -0.0133507 0.970927 0.370613
5.39437 -11.604 75.0256 -0.996905 0 3.88152 -0.960061 0.206234 0.18908 0.449031
4.92669 -15.5664 75.9152 -1.1498 0 3.8 -0.800438 -0.5513 0.235303 -0.121076
-3.85881 -19.358 81.35 -0.569821 0 -1.51082 -0.0542904 -0.998411 0.015102 -0.298514
-2.86138 -14.8606 71.7235 -1.09583 0 -3.5 -0.696855 -0.501998 0.512242 0.574715
-2.1195 -16.8443 74.9489 -1.00902 0 -3.5 -0.966819 0.165443 -0.194653 0.827659
4.64725 -18.4542 73.7294 -0.828147 0 1.86995 -0.161742 0.211393 0.963925 0.999807
0.242375 -24.5678 69.9744 1.00485 0 -1.3 -0.382736 -0.609205 -0.694538 -0.999864
1.13194 -13.9213 78.4871 -1.5602 0 3.8 0.389286 -0.199521 -0.899248 -0.327958
-4.487 -11.2647 80.0833 0.10706 0 -1.09085 -0.835524 0.316624 -0.449053 0.0268055
6.84825 -17.6412 75.9852 -0.769663 0 3.8 -0.895169 -0.151777 0.41909 0.666871
0.48625 -7.07487 79.9252 -0.128042 0 -3.06281 0.362105 -0.286405 -0.887047 0.233398
-3.221 -6.98425 74.0146 -0.159931 -0.0327395 1.98165 -0.298022 -0.0583605 0.952773 0.905853
3.12725 -21.1606 79.4158 -1.21793 -0.631387 -3.5 -0.876395 0.457272 -0.15111 -0.407227
5.03225 -4.26644 78.7732 -1.00443 0 -2.11614 -0.453131 -0.196005 -0.869628 0.526617
-4.42925 -9.3935 84.0922 2.74185 -0.00503282 -3.76485 -0.978175 0.203901 0.0399876 0.999871
4.33025 -7.38375 79.2373 -1.27682 0 -0.649251 -0.724079 -0.0701905 -0.686136 0.152863
3.664 -23.6413 77.2105 -1.76731 -0.614 -3.5 -0.846986 -0.415152 0.33206 -0.143512
2.652 -20.7246 75.1721 -0.752995 0 -3.5 -0.218028 0.461148 0.86012 0.109662
1.50925 -19.0831 83.809 -1.9081 -0.142611 1.8 -0.413789 -0.556193 -0.720714 0.455626
-2.067 -18.5742 69.7042 -0.0693022 0 -4.5 -0.923823 -0.266322 -0.274996 0.999833
2.72725 -21.1154 83.9178 -1.62885 -0.801522 3.55503 -0.687893 0.135841 -0.712987 0.999816
4.90431 -17.2167 79.2353 -0.90922 0 4.5 -0.576281 -0.446938 -0.684213 0.395421
4.637 -26.3468 73.4875 -0.651943 -0.066972 -0.7 -0.743335 -0.61247 0.268948 -0.999849
-2.6445 -13.6745 84.5232 1.52187 -0.0305315 -3.8744 -0.785174 0.20025 0.586005 0.999897
5.36137 -19.6071 74.7966 -0.970521 0 0.313803 -0.560121 0.572092 0.599145 0.999818
-1.661 -20.2488 69.4317 0.061397 0 -4.5 -0.897977 -0.280557 -0.339006 -0.999822
1.05194 -22.4956 84.0001 -3.61887 -0.46767 3.8 -0.65322 0.450828 -0.608323 -0.188626
0.9445 -11.0255 81.003 -1.29316 -0.0240385 1.75937 0.130259 0.481754 -0.866571 0.626536
-5.8505 -19.3005 84.1537 -0.582509 0 -3.5 -0.0627472 -0.986113 -0.153767 0.999808
3.53362 -25.5616 71.4456 0.417842 0 -0.7 -0.58553 -0.776761 0.231942 0.999851
-4.03725 -5.27275 83.1946 0.189834 0 3.8 -0.999755 -0.0217684 -0.0040725 0.999884
-6.7825 -8.10125 73.9548 -0.352984 0 3.8 0.0563746 0.182891 0.981515 0.999793
-1.39931 -6.36156 77.1394 -0.794592 0 3.8 -0.273489 -0.961591 0.0233916 -0.0373841
4.35612 -10.0257 78.0931 -1.39321 0 4.2 -0.988231 -0.0185956 -0.151833 -0.593856
-4.57963 -22.8882 75.1042 -1.42281 -0.049682 -1.3 -0.997391 -0.00218418 0.0721594 -0.598889
-2.4425 -23.3482 76.9437 2.9332 -0.148404 -1.3 0.107457 -0.166752 0.980126 -0.507064
-5.809 -4.65175 80.595 -0.0884791 0 4.2 -0.521493 -0.65197 0.550437 -0.999885
-2.3765 -6.44137 78.3958 -0.542885 0 1.93018 -0.409218 -0.533339 -0.740331 0.150465
-1.33419 -20.013 76.4638 -1.25485 0 -3.5 0.596888 -0.16785 0.784571 0.0608456
-3.076 -5.0185 74.7428 -0.594308 0 3.8 -0.776007 -0.2575 0.575767 0.221425
-0.959875 -18.8945 81.7709 -3.20954 -0.0832309 3.8 0.454562 -0.847752 -0.273294 -0.681167
-4.17344 -9.26713 79.5132 -0.914059 0 -3.5 -0.638098 0.0741727 -0.766374 -0.345572
-0.67975 -28.3975 81.4902 0.563681 0 -3.9 -0.634536 0.239626 -0.734809 0.999837
-2.43762 -19.0359 83.4695 -1.3487 0 -3.5 0.198979 -0.977452 -0.07067 0.204424
-0.423 -23.6824 84.8613 -0.739866 -0.00119959 -3.9 -0.648962 0.468758 -0.599262 -0.141322
-6.7615 -18.8948 81.985 -1.73145 -0.0269439 -3.5 -0.468544 -0.820559 -0.327337 -0.999856
-6.02175 -16.446 79.4492 -0.335723 0 1.9 -0.945556 0.0926045 -0.312006 -0.399481
3.03356 -7.4755 72.8677 -0.511529 0 2.8 0.350853 -0.336604 0.873842 0.550112
3.51494 -4.38406 74.7777 -0.734021 0 4.2 0.280247 -0.705884 0.65053 0.358392
-4.28556 -23.4622 72.7302 -0.479218 0 -1.3 -0.878515 -0.215494 -0.42635 -0.999798
-3.36262 -13.4806 72.8063 -0.649643 0 -3.5 -0.853012 -0.460346 0.245869 0.123574
3.90319 -3.13725 79.0709 0.0482332 0 -3.21417 -0.43024 -0.58167 -0.690328 0.690716
2.285 -16.4569 73.9426 -0.652835 0 1.8 0.160636 -0.0944259 0.982487 0.372741
-5.24662 -16.5684 77.8136 -0.98135 0 1.9 -0.778575 -0.00566582 -0.627526 -0.609367
-1.63737 -18.5154 80.0892 -1.60082 0 2.81532 0.8287 -0.542145 -0.139049 -0.0473875
4.818 -8.229 77.2377 -1.15795 0 4.2 -0.804318 0.390056 -0.44825 -0.63482
2.44694 -16.8762 80.9531 -2.73365 -0.155585 4.5 -0.401516 -0.688783 -0.603625 0.271868
4.4045 -4.89831 73.4124 -0.685386 0 3.19205 0.0475227 -0.604783 0.794971 0.853119
-5.35625 -16.6134 83.6052 -0.121854 0 -3.5 -0.583491 0.766618 0.26802 0.999913
-4.83125 -11.6706 71.6266 -0.828635 0 3.0224 -0.629625 -0.681348 0.373278 0.999896
-1.65663 -25.7482 83.716 -0.369931 0 -3.9 -0.796193 0.397937 -0.455767 -0.632887
-5.64463 -5.95363 73.7856 -0.490607 -0.103129 3.8 -0.222965 -0.0458758 0.973746 0.999839
0.269 -25.0755 74.8625 -0.171183 0 -1.3 0.320945 -0.824788 0.465531 -0.581703
-3.637 -24.3535 75.627 -0.755503 0 -1.3 -0.496546 -0.83269 0.245092 -0.599974
2.60562 -7.24137 80.2519 -1.01954 0 -1.22888 -0.108794 -0.378988 -0.918984 0.34102
-2.19587 -25.3311 85.6514 -0.605343 -0.052464 -3.9 -0.733991 0.448573 -0.509941 0.99985
1.69494 -15.554 79.9543 -1.51879 0 4.22926 -0.144293 -0.623549 -0.768353 0.19261
1.06737 -20.6122 84.9196 -1.41755 -0.423655 2.81042 -0.615153 -0.104789 -0.781413 0.301828
-2.97937 -11.7722 78.3354 -1.74451 0 -2.45169 -0.328105 0.75291 -0.570503 0.111906
-0.69875 -22.0015 69.0181 -0.022243 0 -3.26965 -0.788832 -0.306323 -0.532832 0.99989
4.72375 -12.916 77.4827 -1.30944 0 4.46507 -0.905822 0.129539 -0.40337 0.354306
5.158 -27.5114 80.2692 0.345788 0 -3.9 -0.142136 -0.790029 -0.596365 0.999934
2.70181 -5.93644 74.5771 -0.964291 0 3.8 0.688347 -0.432667 0.582218 0.0687073
-3.66788 -18.9772 73.5726 -4.49784 0 -3.5 -0.990679 0.115018 -0.0729754 -0.999771
-0.352531 -7.54203 74.9116 -1.24999 0 2.60551 0.064463 -0.722068 0.688812 0.0434953
1.8385 -23.659 75.088 -0.30239 0 -2.41894 -0.110532 -0.686006 0.719151 -0.0823971
-3.29478 -20.4919 74.6413 -0.946619 -0.589577 -3.5 -0.95071 0.308083 -0.035135 0.278027
0.011625 -18.4031 82.9629 -1.59677 -0.0116746 3.8 0.113558 -0.911521 -0.395265 -0.0934556
3.97966 -18.8602 80.7868 -0.97004 0 -3.5 -0.904541 -0.0708413 -0.42046 0.223966
-3.00816 -18.5204 76.0925 -1.70858 0 -2.73907 -0.928873 0.0944137 -0.358164 0.311911
-4.36025 -14.0193 77.5743 -2.08421 0 -3.5 -0.829834 0.251326 -0.498207 0.0862124
-1.89434 -15.938 75.6953 -1.65657 0 -3.5 0.879889 -0.0537305 0.472131 0.999813
-3.38162 -20.4048 77.0333 -3.65254 0 0.427895 -0.525081 -0.694636 0.491702 -0.0985447
6.017 -3.79575 77.3425 -0.560484 0 -3.9 -0.730428 -0.651947 -0.203569 0.756419
6.19206 -6.65381 78.1683 -0.998857 0 1.15835 -0.732059 0.363792 -0.575973 0.999783
6.67788 -17.0026 77.9739 -0.644203 0 3.8 -0.811222 -0.364079 -0.457564 0.999859
3.60475 -20.0326 82.4636 -1.19036 0 -2.60674 -0.942827 0.0719892 -0.325415 0.625098
0.186344 -4.29084 77.5705 -0.715328 -0.0446442 3.37524 0.923351 -0.365712 0.116956 0.579689
-0.886437 -14.3698 75.1908 -2.10338 0 -3.5 0.831091 -0.165179 0.53104 0.389247
5.08291 -6.48475 73.0624 -0.660929 0 2.06083 -0.524839 -0.208339 0.825312 0.505208
1.30212 -18.5608 74.1711 -0.954502 -0.259496 -3.5 0.280628 0.198636 0.939038 0.577253
5.76569 -9.66431 74.2272 -0.906793 0 3.8 -0.905025 0.284531 0.316185 0.43624
0.346219 -24.7021 83.2801 -0.780243 0 -3.9 -0.541956 0.547902 -0.63725 0.0656494
-4.07125 -13.7327 75.8136 -2.68408 -0.47369 -3.5 -0.990789 -0.028555 -0.132372 -0.288482
4.99875 -3.15694 76.2047 -0.792585 -0.124951 1.3703 -0.354831 -0.895126 0.269898 0.750308
-2.2735 -10.0927 79.0351 1.51443 0 -3.5 0.419318 0.272197 -0.866072 -0.587891
-4.66044 -8.12519 81.9539 -1.19612 -0.14025 -3.5 -0.99388 0.104954 0.034463 -0.423068
-5.95188 -12.6575 81.7049 1.08531 0 1.9 -0.951703 0.301407 -0.0584425 -0.999798
-1.10187 -15.105 79.5674 -1.95316 0 3.8 0.489805 -0.489 -0.721783 0.999843
2.66153 -22.6042 82.3507 -1.20712 -0.0731832 1.67735 -0.89168 0.335551 -0.303829 0.301553
0.363625 -6.07562 76.8791 -0.942122 0 3.8 0.600678 -0.536629 0.592635 -0.282012
-3.425 -4.3585 77.7055 -0.423311 0 4.18263 -0.618403 -0.533833 -0.576715 0.266627
-1.20487 -14.185 78.0889 -3.27481 -0.303867 -3.5 0.685639 -0.620409 -0.380778 0.357944
3.48887 -24.2879 75.0029 -1.12666 -0.0245205 -3.5 -0.610525 -0.75543 0.237875 0.4629
4.08928 -24.1709 78.7731 -0.591347 -0.0172375 -3.57564 -0.879779 -0.356179 -0.314842 0.491764
2.71287 -13.375 78.7737 -1.39696 0 4.36924 -0.255965 0.35791 -0.897988 -0.0677068
-3.81737 -9.70034 74.1148 -0.638326 -0.125405 -2.02833 -0.257779 0.154516 0.953769 0.76254
5.64184 -19.8853 76.83 -0.818525 0 -2.66442 -0.648267 0.760274 0.0416333 0.362291
3.55706 -21.5198 77.0866 -1.20884 0 -3.5 -0.907374 0.412847 0.0789289 -0.0750458
5.02744 -13.6497 75.2318 -1.12177 0 3.8 -0.941708 0.244643 0.230946 0.427347
3.14209 -2.34462 77.3547 -0.212437 0 4.2 0.0123651 -0.926611 0.375818 0.622841
0.464875 -16.886 74.6659 -0.681153 0 -2.76408 0.503876 0.113187 0.856328 0.119461
1.28884 -4.24047 76.3308 -0.781274 0 3.8 0.580809 -0.45834 0.672745 0.716834
-2.7155 -23.6005 86.9445 -0.152449 -0.165124 -3.9 -0.4094 0.0410298 -0.911432 0.999832
1.011 -8.07597 73.9702 -1.14347 0 2.8254 0.534211 -0.370861 0.759659 0.262363
-2.61978 -24.7229 71.9529 -0.404964 0 -1.3 -0.501805 -0.778033 -0.377963 -0.604513
1.81419 -10.5456 72.8096 -1.06652 0 1.99456 0.311156 0.0702578 0.947758 0.851988
0.129438 -21.9595 86.0684 -0.789798 0 -3.9 -0.638176 0.196848 -0.7443 0.797859
-4.53559 -11.3857 74.5953 -0.706253 0 2.74195 -0.684386 -0.180763 0.706357 -0.167134
3.70672 -12.3097 73.1789 -1.07383 -0.00343787 3.55567 -0.22427 0.388084 0.893921 0.566915
-2.89478 -8.01116 78.9965 0.285946 0 -3.5 -0.0584254 -0.394972 -0.916834 -0.440442
3.60141 -15.1431 74.5862 -1.10963 0 1.8 -0.348291 -0.108049 0.931138 -0.0560606
4.24691 -10.2788 72.7491 -0.9921 0 3.18805 -0.479727 0.241961 0.843396 0.657596
-1.03234 -19.9411 85.9613 -0.869843 0 -3.18445 -0.177853 -0.536307 -0.825071 0.775487
-5.8765 -16.3288 81.9368 -0.629728 0 -3.5 -0.845095 0.303518 0.440104 -0.999734
2.23913 -24.8974 70.5372 8.19317 0 -1.3 0.0298003 -0.998685 -0.041704 0.999835
-1.12647 -10.2755 75.3195 -0.925297 0 -3.5 0.140069 0.460718 0.876424 -0.217012
0.0822188 -22.9013 75.9476 -0.693104 0 -1.3 0.388819 0.0118552 0.921238 -0.282078
4.48588 -9.48509 79.9579 -2.005 0 4.2 -0.868742 0.152381 -0.471239 0.604166
-2.73569 -11.6535 76.8255 -3.16258 0 -3.5 -0.221964 0.840464 0.49432 -0.168882
-5.63363 -18.6186 79.9791 -1.36339 0 1.9 -0.772792 -0.567435 -0.284269 -0.301854
5.03594 -18.6796 78.8153 -0.761869 0 -3.5 -0.698438 0.433411 -0.569508 0.0983976
2.10269 -24.8339 82.534 -0.699402 0 -3.9 -0.613545 0.570885 -0.545576 0.999855
0.4575 -11.567 73.9693 -0.900804 -0.0708057 -3.02982 0.568555 0.154577 0.807992 0.341337
-4.02972 -21.7603 76.8498 -2.2251 -0.102235 -1.3 -0.585706 0.278321 0.76124 -0.501663
-0.996875 -11.2721 80.4269 -1.19656 0 -1.05853 0.469289 0.390746 -0.791887 0.684684
0.0787812 -12.0756 79.1014 -1.5598 0 3.8 0.274499 0.806358 -0.523868 -0.100533
-0.557219 -12.3078 77.1049 -6.15025 -0.327534 -3.5 0.82318 0.551077 -0.136708 -0.189696
-3.444 -2.21962 76.9053 -0.123577 0 -4.5 -0.863072 -0.178313 -0.472558 0.99988
-3.79606 -16.7681 77.0628 -1.54613 0 0.817478 -0.723084 -0.0796296 -0.686155 0.449224
-3.68631 -19.9023 78.9687 -3.52704 0 1.9 -0.0357306 -0.981404 0.188599 -0.46191
2.83862 -28.4356 79.7205 6.16259 0 -3.9 -0.107932 -0.0438939 -0.993189 -0.999823
-0.073375 -26.2901 81.3659 1.00483 0 -3.9 -0.49853 0.582787 -0.641738 -0.588269
2.43712 -2.0365 78.6712 0.747613 0 -3.9 0.0602446 -0.859584 -0.507431 0.999892
2.22025 -25.128 80.8132 -0.39603 0 -3.9 -0.713589 0.217266 -0.666023 0.0279998
-2.858 -17.8815 71.702 -0.891229 -0.772055 -3.5 -0.990758 -0.0385483 -0.130046 -0.0917177
-0.578344 -8.85734 80.4643 -1.08475 0 -3.5 0.323425 -0.249515 -0.912764 0.411849
1.46011 -4.1672 79.417 -2.08546 -0.174373 -4.5 0.256602 -0.340077 -0.904711 0.454885
-2.46383 -15.0639 74.5802 -1.58708 -0.131315 -3.5 -0.949528 -0.277997 -0.145306 0.875972
-2.37442 -21.1242 72.046 -0.909346 -0.150407 -1.57256 -0.846659 0.0678528 -0.527792 0.33322
-4.64009 -6.17261 79.6831 -0.324977 0 1.0756 -0.725084 -0.497036 -0.476664 -0.161137
6.39052 -7.39172 75.9177 -0.763068 -0.0113599 1.8 -0.958277 0.285561 -0.0126885 0.323612
-2.14214 -16.4128 78.482 -2.2123 -0.489525 1.9 0.958957 -0.126401 -0.25382 0.66178
-1.98825 -27.0513 84.3863 -0.271604 0 -3.9 -0.959535 0.111117 -0.258739 0.999925
3 191 93 152
3 191 222 93
3 93 188 152
3 23 191 152
3 113 222 191
3 223 93 222
3 223 188 93
3 188 184 152
3 156 191 23
3 152 3 23
3 113 221 222
3 191 64 113
3 222 154 223
3 174 188 223
3 238 184 188
3 184 47 152
3 22 191 156
3 195 156 23
3 107 3 152
3 77 23 3
3 221 113 232
3 154 222 221
3 22 64 191
3 53 113 64
3 223 154 215
3 167 188 174
3 174 223 49
3 184 238 47
3 238 188 167
3 14 152 47
3 22 156 119
3 156 195 86
3 87 195 23
3 107 77 3
3 142 107 152
3 77 87 23
3 113 53 232
3 181 221 232
3 154 221 181
3 22 214 64
3 64 214 53
3 215 154 179
3 49 223 215
3 174 197 167
3 219 174 49
3 47 238 140
3 167 83 238
3 142 152 14
3 126 14 47
3 119 156 74
3 119 214 22
3 86 195 205
3 86 74 156
3 207 195 87
3 77 107 171
3 142 164 107
3 1 87 77
3 53 150 232
3 232 127 181
3 127 154 181
3 67 53 214
3 179 154 166
3 204 215 179
3 212 49 215
3 174 63 197
3 197 83 167
3 63 174 219
3 219 49 212
3 83 140 238
3 126 47 140
3 142 14 0
3 14 126 163
3 119 74 141
3 101 214 119
3 205 195 207
3 86 205 208
3 74 86 177
3 87 79 207
3 171 107 217
3 77 171 1
3 142 7 164
3 107 164 217
3 95 87 1
3 53 67 150
3 232 150 96
3 206 127 232
3 154 127 94
3 67 214 101
3 166 154 20
3 166 225 179
3 212 215 204
3 136 204 179
3 197 63 138
3 39 83 197
3 63 219 52
3 200 219 212
3 2 140 83
3 44 126 140
3 163 0 14
3 7 142 0
3 129 163 126
3 237 141 74
3 141 101 119
3 207 52 205
3 205 202 208
3 177 86 208
3 177 237 74
3 79 87 95
3 207 79 10
3 217 18 171
3 171 95 1
3 7 172 164
3 217 164 98
3 150 67 101
3 96 150 233
3 45 232 96
3 236 127 206
3 45 206 232
3 94 127 75
3 94 20 154
3 166 20 132
3 225 166 139
3 234 179 225
3 212 204 192
3 136 26 204
3 234 136 179
3 138 63 207
3 176 197 138
3 39 124 83
3 39 197 176
3 219 205 52
3 63 52 207
3 202 219 200
3 212 84 200
3 140 2 226
3 124 2 83
3 129 126 44
3 44 140 226
3 104 0 163
3 0 104 7
3 163 129 73
3 170 141 237
3 101 141 170
3 219 202 205
3 208 202 4
3 177 208 4
3 19 237 177
3 79 95 110
3 91 10 79
3 10 138 207
3 193 18 217
3 95 171 18
3 104 172 7
3 172 98 164
3 98 194 217
3 150 101 36
3 233 150 36
3 96 233 28
3 96 28 45
3 127 236 182
3 206 123 236
3 206 45 123
3 127 182 75
3 183 94 75
3 183 20 94
3 132 20 183
3 139 166 132
3 139 43 225
3 234 225 90
3 192 204 117
3 212 192 84
3 26 136 145
3 204 26 145
3 136 234 89
3 176 138 91
3 39 213 124
3 39 176 68
3 202 200 133
3 84 160 200
3 226 2 168
3 124 168 2
3 129 44 88
3 88 44 226
3 104 163 209
3 82 73 129
3 209 163 73
3 170 237 81
3 170 99 101
3 4 202 133
3 19 177 4
3 237 19 175
3 95 193 110
3 79 110 91
3 91 138 10
3 95 18 193
3 194 193 217
3 172 104 106
3 71 98 172
3 194 98 46
3 36 101 99
3 233 36 137
3 173 28 233
3 118 45 28
3 236 65 182
3 236 123 187
3 123 45 118
3 100 75 182
3 183 75 56
3 183 210 132
3 132 216 139
3 216 43 139
3 165 225 43
3 165 90 225
3 234 90 231
3 117 204 54
3 117 97 192
3 192 78 84
3 145 136 55
3 59 204 145
3 234 70 89
3 136 89 11
3 91 50 176
3 68 213 39
3 85 124 213
3 103 68 176
3 133 200 158
3 160 84 78
3 200 160 41
3 226 168 43
3 168 124 85
3 129 88 114
3 88 226 216
3 209 153 104
3 82 209 73
3 82 129 114
3 237 17 81
3 81 9 170
3 9 99 170
3 133 175 4
3 175 19 4
3 17 237 175
3 193 61 110
3 110 50 91
3 193 194 61
3 104 153 106
3 106 185 172
3 98 71 46
3 172 185 71
3 46 190 194
3 36 99 137
3 233 137 229
3 28 173 186
3 233 15 173
3 118 28 186
3 236 122 65
3 65 116 182
3 187 123 118
3 236 187 60
3 56 75 100
3 100 182 57
3 210 183 69
3 210 33 132
3 132 33 216
3 226 43 216
3 165 43 168
3 90 165 159
3 231 90 159
3 231 70 234
3 54 204 59
3 97 117 147
3 97 78 192
3 11 55 136
3 11 89 70
3 103 176 50
3 68 103 213
3 85 213 121
3 41 158 200
3 133 158 143
3 118 160 78
3 160 186 41
3 168 85 220
3 88 131 114
3 216 131 88
3 203 153 209
3 209 82 37
3 82 114 8
3 81 17 40
3 169 9 81
3 99 9 169
3 133 143 175
3 175 143 17
3 50 110 61
3 194 103 61
3 153 112 106
3 106 112 185
3 71 185 46
3 190 46 230
3 102 194 190
3 137 99 169
3 229 137 196
3 229 15 233
3 198 186 173
3 173 15 198
3 118 186 160
3 122 236 51
3 65 122 24
3 65 24 116
3 116 57 182
3 187 118 125
3 187 224 60
3 51 236 60
3 69 76 210
3 216 33 131
3 168 162 165
3 165 162 159
3 235 231 159
3 70 231 105
3 125 97 147
3 78 97 125
3 103 50 61
3 213 103 161
3 121 213 32
3 220 85 121
3 41 186 158
3 158 134 143
3 118 78 125
3 162 168 220
3 112 153 203
3 203 209 199
3 37 82 13
3 199 209 37
3 13 82 8
3 143 40 17
3 169 81 40
3 161 103 194
3 178 185 112
3 185 230 46
3 230 12 190
3 161 194 102
3 190 29 102
3 180 137 169
3 196 137 180
3 196 15 229
3 186 198 158
3 198 15 196
3 187 125 224
3 76 69 34
3 210 76 144
3 159 162 235
3 105 231 235
3 16 125 147
3 148 213 161
3 148 32 213
3 121 32 149
3 5 220 121
3 134 158 198
3 134 40 143
3 220 120 162
3 112 203 130
3 130 203 199
3 27 37 13
3 199 37 27
3 40 180 169
3 185 178 218
3 130 178 112
3 230 185 218
3 12 230 227
3 12 48 190
3 189 161 102
3 48 29 190
3 102 29 189
3 180 134 196
3 196 134 198
3 224 125 58
3 34 109 76
3 76 6 144
3 162 42 235
3 105 235 111
3 16 58 125
3 72 148 161
3 148 62 32
3 149 32 62
3 149 5 121
3 220 5 120
3 40 134 180
3 120 42 162
3 130 199 151
3 178 228 218
3 130 151 178
3 230 218 228
3 227 230 30
3 12 227 157
3 157 48 12
3 189 66 161
3 48 31 29
3 29 31 189
3 76 109 80
3 76 80 6
3 135 235 42
3 111 235 155
3 72 62 148
3 72 161 66
3 62 201 149
3 149 120 5
3 120 135 42
3 228 178 146
3 146 178 151
3 228 128 230
3 230 128 30
3 115 66 189
3 31 108 189
3 38 235 135
3 155 235 25
3 201 62 72
3 66 211 72
3 201 135 149
3 135 120 149
3 128 228 146
3 151 239 146
3 211 66 115
3 108 115 189
3 235 38 25
3 135 201 38
3 92 155 25
3 201 72 21
3 21 72 211
3 35 128 146
3 239 35 146
3 25 38 201
3 25 201 92
3 92 201 21
3 92 21 211
